<mxfile host="app.diagrams.net" modified="2022-05-04T20:20:49.290Z" agent="5.0 (Windows NT 10.0; Win64; x64) AppleWebKit/537.36 (KHTML, like Gecko) Chrome/100.0.4896.127 Safari/537.36" etag="JxaX1xlZ6tySx1YswRQL" version="17.5.0" type="github">
  <diagram id="7HQYNC31aHsgBr6-6DPW" name="Page-1">
    <mxGraphModel dx="1422" dy="762" grid="1" gridSize="10" guides="1" tooltips="1" connect="1" arrows="1" fold="1" page="1" pageScale="1" pageWidth="827" pageHeight="1169" math="0" shadow="0">
      <root>
        <mxCell id="0" />
        <mxCell id="1" parent="0" />
        <mxCell id="v6Sz__jcGQsvWJIk5j0P-2" value="1&lt;br&gt;def a" style="ellipse;whiteSpace=wrap;html=1;" parent="1" vertex="1">
          <mxGeometry x="150" y="60" width="80" height="70" as="geometry" />
        </mxCell>
        <mxCell id="v6Sz__jcGQsvWJIk5j0P-4" value="2&lt;br&gt;use a" style="ellipse;whiteSpace=wrap;html=1;" parent="1" vertex="1">
          <mxGeometry x="280" y="60" width="80" height="70" as="geometry" />
        </mxCell>
        <mxCell id="v6Sz__jcGQsvWJIk5j0P-9" value="" style="endArrow=classic;html=1;rounded=0;" parent="1" source="v6Sz__jcGQsvWJIk5j0P-2" target="v6Sz__jcGQsvWJIk5j0P-4" edge="1">
          <mxGeometry width="50" height="50" relative="1" as="geometry">
            <mxPoint x="150" y="400" as="sourcePoint" />
            <mxPoint x="200" y="350" as="targetPoint" />
          </mxGeometry>
        </mxCell>
      </root>
    </mxGraphModel>
  </diagram>
</mxfile>
